<svg fill="white" height="448pt" viewBox="0 -60 448 448" width="448pt" xmlns="http://www.w3.org/2000/svg"><path d="m376 32h32v8h-32zm0 0"/><path d="m424 56h-88c-2.863281.003906-5.511719-1.519531-6.945312-4l-22.78125-39.871094c-4.277344-7.480468-12.226563-12.1093748-20.839844-12.128906h-122.867188c-8.609375.015625-16.554687 4.628906-20.839844 12.097656l-22.78125 39.902344c-1.433593 2.480469-4.082031 4.003906-6.945312 4h-88c-13.253906 0-24 10.746094-24 24v224c0 13.253906 10.746094 24 24 24h400c13.253906 0 24-10.746094 24-24v-224c0-13.253906-10.746094-24-24-24zm-87.871094 162.824219c-19.953125 52.140625-73.226562 83.632812-128.527344 75.976562-55.300781-7.652343-98.019531-52.433593-103.058593-108.03125l-20.800781 20.796875c-3.136719 3.035156-8.125 2.988282-11.210938-.097656s-3.132812-8.074219-.097656-11.210938l33.941406-33.945312c3.125-3.125 8.1875-3.125 11.3125 0l33.945312 33.945312c2.078126 2.007813 2.914063 4.980469 2.179688 7.777344-.730469 2.796875-2.914062 4.980469-5.710938 5.714844-2.796874.730469-5.773437-.101562-7.78125-2.183594l-19.519531-19.496094c5.578125 47.546876 42.894531 85.140626 90.398438 91.074219 47.5 5.9375 92.917969-21.320312 110.023437-66.03125.992188-2.710937 3.367188-4.675781 6.214844-5.144531 2.84375-.46875 5.722656.632812 7.53125 2.878906 1.808594 2.25 2.265625 5.296875 1.199219 7.976563zm39.472656-63.113281-33.945312 33.945312c-3.125 3.121094-8.1875 3.121094-11.3125 0l-33.945312-33.945312c-2.078126-2.007813-2.914063-4.980469-2.179688-7.777344.730469-2.796875 2.917969-4.984375 5.714844-5.714844 2.796875-.734375 5.769531.101562 7.777344 2.179688l19.527343 19.53125c-5.578125-47.617188-42.984375-85.246094-90.566406-91.113282-47.578125-5.867187-93.003906 21.550782-109.984375 66.382813-1.5625 4.132812-6.179688 6.21875-10.3125 4.65625s-6.21875-6.179688-4.65625-10.3125c19.796875-52.285157 73.082031-83.972657 128.476562-76.402344 55.394532 7.570313 98.21875 52.394531 103.261719 108.074219l20.800781-20.800782c2.007813-2.078124 4.980469-2.910156 7.777344-2.179687s4.980469 2.917969 5.714844 5.714844c.730469 2.796875-.101562 5.769531-2.183594 7.777343zm0 0"/><path d="m40 24h48v16h-48zm0 0"/></svg>